<svg width="135" height="135" viewBox="0 0 135 135" fill="none" xmlns="http://www.w3.org/2000/svg">
<style>
    path {
      fill: black;
    }
    @media (prefers-color-scheme: dark) {
      path {
        fill: black;
      }
    }
  </style>
<rect x="92.0259" y="0.716309" width="41.8919" height="41.8919" rx="20.9459" fill="#FF3D00"/>
<mask id="path-3-inside-1_194_16517" fill="white">
<path fill-rule="evenodd" clip-rule="evenodd" d="M17.4995 76.8184L17.4995 107.1V117.5H27.8995H107.1H117.5V107.1V27.9V17.5H107.1H55.8554V27.9H107.1V107.1H27.8995V76.8184H17.4995Z"/>
</mask>
<path fill-rule="evenodd" clip-rule="evenodd" d="M17.4995 76.8184L17.4995 107.1V117.5H27.8995H107.1H117.5V107.1V27.9V17.5H107.1H55.8554V27.9H107.1V107.1H27.8995V76.8184H17.4995Z" />
<path d="M17.4995 76.8184V75.4675H16.1485V76.8184H17.4995ZM17.4995 117.5H16.1485V118.851H17.4995V117.5ZM117.5 117.5V118.851H118.85V117.5H117.5ZM117.5 17.5H118.85V16.149H117.5V17.5ZM55.8554 17.5V16.149H54.5044V17.5H55.8554ZM55.8554 27.9H54.5044V29.251H55.8554V27.9ZM107.1 27.9H108.45V26.549H107.1V27.9ZM107.1 107.1V108.451H108.45V107.1H107.1ZM27.8995 107.1H26.5485V108.451H27.8995V107.1ZM27.8995 76.8184H29.2505V75.4675H27.8995V76.8184ZM16.1485 76.8184L16.1485 107.1H18.8505L18.8505 76.8184H16.1485ZM16.1485 107.1V117.5H18.8505V107.1H16.1485ZM17.4995 118.851H27.8995V116.149H17.4995V118.851ZM27.8995 118.851H107.1V116.149H27.8995V118.851ZM107.1 118.851H117.5V116.149H107.1V118.851ZM118.85 117.5V107.1H116.149V117.5H118.85ZM118.85 107.1V27.9H116.149V107.1H118.85ZM118.85 27.9V17.5H116.149V27.9H118.85ZM117.5 16.149H107.1V18.851H117.5V16.149ZM107.1 16.149H55.8554V18.851H107.1V16.149ZM54.5044 17.5V27.9H57.2064V17.5H54.5044ZM107.1 26.549H55.8554V29.251H107.1V26.549ZM108.45 107.1V27.9H105.749V107.1H108.45ZM27.8995 108.451H107.1V105.749H27.8995V108.451ZM26.5485 76.8184V107.1H29.2505V76.8184H26.5485ZM27.8995 75.4675H17.4995V78.1694H27.8995V75.4675Z" mask="url(#path-3-inside-1_194_16517)"/>
<path d="M13.2119 17.3937H1.32325L17.4919 43.3705V62.2141H27.835V43.3705L44.0036 17.3937H32.3527L22.7823 33.3246L13.2119 17.3937Z" />
</svg>
